#!OML:ASF F:\VICON\USERDATA\INSTALL\rory3\rory3.ASF
:FULLY-SPECIFIED
:DEGREES
829
root -9.03547 17.6966 10.6325 249.571 252.733 151.532
lowerback 39.6252 1.08339 -7.32959
upperback 12.9686 -3.15953 -4.83228
thorax -4.67211 -1.97158 -0.14807
lowerneck -25.1773 0.902643 -10.851
upperneck 9.81741 3.86786 5.79002
head 6.69094 2.00248 4.12804
rclavicle -4.77083e-014 -8.69683e-014
rhumerus -25.9842 10.3352 -89.4391
rradius 54.4092
rwrist -9.97077
rhand -19.4923 11.7481
rfingers 7.12502
rthumb 6.82994 -18.1218
lclavicle -4.77083e-014 -8.69683e-014
lhumerus 29.3573 -8.66665 43.0278
lradius 36.5699
lwrist 2.01983
lhand -22.5749 26.9346
lfingers 7.12502
lthumb 3.85362 56.8795
rfemur -39.3935 -4.16581 21.7701
rtibia 50.3168
rfoot -5.89449 -1.11225
rtoes 1.79738
lfemur -65.3222 7.57197 -17.3443
ltibia 27.1406
lfoot -3.83406 -12.7109
ltoes -8.61649
830
root -9.03197 17.7117 10.6011 247.499 252.837 152.766
lowerback 39.4705 1.13624 -7.56187
upperback 12.8332 -3.11146 -4.44809
thorax -4.73394 -1.96178 0.358942
lowerneck -25.3344 0.857262 -11.2385
upperneck 9.9096 3.97296 5.6652
head 6.73132 2.0229 4.16416
rclavicle 2.8625e-014 2.37548e-014
rhumerus -26.0791 10.7386 -88.9213
rradius 53.9759
rwrist -9.78101
rhand -18.9692 11.8292
rfingers 7.12502
rthumb 7.33489 -18.0237
lclavicle 2.8625e-014 2.37548e-014
lhumerus 28.1016 -9.04007 44.4075
lradius 36.5433
lwrist 1.76033
lhand -22.4194 26.3117
lfingers 7.12502
lthumb 4.00381 56.2538
rfemur -39.1987 -4.30568 21.4772
rtibia 51.4191
rfoot -6.06546 -1.39207
rtoes 1.19222
lfemur -64.2836 7.65192 -17.8328
ltibia 26.7987
lfoot -3.62701 -13.152
ltoes -8.11868
831
root -9.03356 17.7336 10.5677 245.698 252.945 153.714
lowerback 39.2043 1.22656 -7.62352
upperback 12.7636 -2.97073 -4.24621
thorax -4.71671 -1.90473 0.55172
lowerneck -25.4402 0.796041 -11.2976
upperneck 9.93162 3.92234 5.65606
head 6.75838 1.9943 4.16738
rclavicle 2.22639e-014 8.3738e-015
rhumerus -26.1739 10.7605 -88.6781
rradius 53.6235
rwrist -9.68204
rhand -18.6729 11.6451
rfingers 7.12502
rthumb 7.62088 -18.1976
lclavicle 2.22639e-014 8.3738e-015
lhumerus 27.0526 -9.81304 45.2068
lradius 36.7686
lwrist 2.05108
lhand -22.3383 26.1011
lfingers 7.12502
lthumb 4.08213 56.0417
rfemur -38.9534 -4.29527 21.1671
rtibia 52.4504
rfoot -6.22957 -1.6313
rtoes 2.92623
lfemur -63.1603 7.71092 -18.0947
ltibia 26.4574
lfoot -3.60555 -13.4322
ltoes -7.92865
832
root -9.04015 17.7537 10.5291 244.154 253.049 154.421
lowerback 38.8171 1.33812 -7.44455
upperback 12.717 -2.73912 -4.32
thorax -4.67159 -1.79231 0.299205
lowerneck -25.3322 0.799723 -10.722
upperneck 9.74644 3.74851 5.47347
head 6.71041 1.91871 3.98863
rclavicle 2.8625e-014 -4.55217e-014
rhumerus -26.3771 10.2153 -88.8898
rradius 53.3317
rwrist -9.25778
rhand -18.9726 10.714
rfingers 7.12502
rthumb 7.33156 -19.1389
lclavicle 2.8625e-014 -4.55217e-014
lhumerus 26.2486 -10.8732 45.6476
lradius 37.0765
lwrist 2.47918
lhand -22.1602 26.555
lfingers 7.12502
lthumb 4.25407 56.4922
rfemur -38.7076 -4.29607 20.9449
rtibia 53.4299
rfoot -6.4098 -1.81913
rtoes 4.31194
lfemur -62.0339 7.85355 -18.295
ltibia 26.1259
lfoot -3.83721 -13.6749
ltoes -8.86234
833
root -9.04745 17.7695 10.4879 242.577 253.155 155.145
lowerback 38.499 1.55235 -7.32614
upperback 12.6506 -2.40954 -4.33911
thorax -4.66359 -1.63535 0.101192
lowerneck -25.2903 0.768322 -10.095
upperneck 9.56991 3.51651 5.30359
head 6.67954 1.81764 3.80122
rclavicle 3.81667e-014 3.42904e-014
rhumerus -26.5527 9.42242 -89.0464
rradius 52.9752
rwrist -8.43558
rhand -19.588 9.62161
rfingers 7.12502
rthumb 6.73759 -20.2512
lclavicle 3.81667e-014 3.42904e-014
lhumerus 25.5859 -12.0197 46.1234
lradius 37.3159
lwrist 3.25751
lhand -22.1395 27.4882
lfingers 7.12502
lthumb 4.27406 57.425
rfemur -38.4493 -4.28104 20.7541
rtibia 54.3517
rfoot -6.47424 -1.98002
rtoes 3.27967
lfemur -60.9079 8.02698 -18.5117
ltibia 25.8214
lfoot -4.12193 -14.0218
ltoes -9.85783
834
root -9.05243 17.7799 10.45 240.722 253.277 156.155
lowerback 38.247 1.76677 -7.33463
upperback 12.5751 -2.11202 -4.20437
thorax -4.66909 -1.49957 0.142012
lowerneck -25.4518 0.661471 -9.89797
upperneck 9.49702 3.32018 5.30633
head 6.69923 1.73236 3.74986
rclavicle -3.81667e-014 -2.52457e-014
rhumerus -26.6803 8.94316 -88.8958
rradius 52.6368
rwrist -7.98665
rhand -20.0357 8.80909
rfingers 7.12502
rthumb 6.3053 -21.0771
lclavicle -3.81667e-014 -2.52457e-014
lhumerus 24.8376 -13.0336 46.8166
lradius 37.5117
lwrist 4.15493
lhand -23.0112 29.8198
lfingers 7.12502
lthumb 3.43225 59.7719
rfemur -38.1743 -4.1126 20.4089
rtibia 55.2217
rfoot -6.48444 -2.17325
rtoes 4.42319
lfemur -59.7962 8.0624 -18.7378
ltibia 25.5333
lfoot -4.36334 -14.2739
ltoes -11.0224
835
root -9.05866 17.7917 10.4163 238.74 253.294 157.146
lowerback 38.171 1.92275 -7.29261
upperback 12.4808 -1.87874 -4.00248
thorax -4.75061 -1.39192 0.252339
lowerneck -25.5388 0.59162 -9.78081
upperneck 9.44559 3.20889 5.20804
head 6.70788 1.67402 3.6857
rclavicle 2.54444e-014 -3.10104e-014
rhumerus -26.8431 8.73807 -88.6475
rradius 52.3222
rwrist -7.93134
rhand -20.1257 8.44166
rfingers 7.12502
rthumb 6.21844 -21.4471
lclavicle 2.54444e-014 -3.10104e-014
lhumerus 23.8558 -13.7591 47.7726
lradius 37.6642
lwrist 4.79254
lhand -22.4101 27.8086
lfingers 7.12502
lthumb 4.01276 57.7506
rfemur -37.7204 -4.01343 20.1384
rtibia 56.019
rfoot -6.47761 -2.39014
rtoes 4.51967
lfemur -58.5259 7.9343 -18.7424
ltibia 25.264
lfoot -4.36337 -14.347
ltoes -11.2787
836
root -9.06871 17.8039 10.3842 236.457 253.306 158.319
lowerback 38.197 2.01738 -7.27634
upperback 12.3983 -1.7427 -3.82678
thorax -4.84921 -1.32976 0.382599
lowerneck -25.7143 0.567629 -9.65531
upperneck 9.55334 3.16283 5.1256
head 6.7772 1.64624 3.63841
rclavicle 6.36111e-015 2.5842e-015
rhumerus -26.9598 8.54465 -88.4793
rradius 51.8928
rwrist -7.75205
rhand -20.0691 8.52365
rfingers 7.12502
rthumb 6.27309 -21.3635
lclavicle 6.36111e-015 2.5842e-015
lhumerus 22.7372 -14.1963 48.8374
lradius 37.7428
lwrist 5.20676
lhand -22.2765 26.848
lfingers 7.12502
lthumb 4.14179 56.7875
rfemur -37.0887 -4.08904 19.8514
rtibia 56.7285
rfoot -6.56657 -2.50924
rtoes 2.61653
lfemur -57.125 7.7988 -18.8005
ltibia 25.0322
lfoot -4.44667 -14.4938
ltoes -11.4182
837
root -9.08041 17.81 10.3485 234.478 253.311 159.455
lowerback 37.8278 1.79085 -7.26318
upperback 12.2963 -1.9511 -3.78174
thorax -4.83234 -1.42295 0.49985
lowerneck -25.8889 0.681248 -9.93826
upperneck 9.58828 3.39834 5.31543
head 6.78849 1.76852 3.77891
rclavicle 4.13472e-014 -3.69739e-014
rhumerus -26.9903 8.96789 -88.5621
rradius 51.3784
rwrist -7.47605
rhand -19.9291 8.39637
rfingers 7.12502
rthumb 6.40823 -21.4867
lclavicle 4.13472e-014 -3.69739e-014
lhumerus 21.1371 -13.9855 49.8012
lradius 37.7816
lwrist 5.35664
lhand -21.5117 26.4148
lfingers 7.12502
lthumb 4.88027 56.3386
rfemur -36.738 -4.06981 19.571
rtibia 57.388
rfoot -6.73126 -2.73385
rtoes 1.57312
lfemur -56.0507 7.74124 -18.932
ltibia 24.8505
lfoot -4.512 -14.6732
ltoes -11.3695
